<svg width="412" height="351" viewBox="0 0 412 351" fill="none" xmlns="http://www.w3.org/2000/svg">
<path d="M408.9 321.49H387.22V321.74H408.9V321.49Z" fill="white" fill-opacity="0.63"/>
<path d="M303.67 316.31H269.56V316.56H303.67V316.31Z" fill="white" fill-opacity="0.63"/>
<path d="M400.12 312.21H355.59V312.46H400.12V312.21Z" fill="white" fill-opacity="0.63"/>
<path d="M132.02 317.25H120.88V317.5H132.02V317.25Z" fill="white" fill-opacity="0.63"/>
<path d="M111.97 317.25H73.5796V317.5H111.97V317.25Z" fill="white" fill-opacity="0.63"/>
<path d="M175.07 123.88L175.52 110.74L167.46 108.1C167.113 103.647 166.391 99.2313 165.3 94.9L172.14 89.9L167.5 77.56L159.04 78.2401C157.034 74.2642 154.692 70.4671 152.04 66.89L156.42 59.58L147.42 49.97L139.86 53.84C136.46 50.9342 132.828 48.312 129 46L130.22 37.6L118.22 32.16L112.72 38.6C108.477 37.2428 104.129 36.2393 99.7198 35.6L97.7198 27.37L84.5398 26.92L81.9398 34.99C77.4911 35.3398 73.0793 36.0589 68.7498 37.14L63.6698 30.34L51.3298 34.95L52.0098 43.41C48.0361 45.4464 44.2396 47.8113 40.6598 50.48L33.2998 46L23.6498 55L27.5198 62.6001C24.6132 65.9826 22.0035 69.6093 19.7198 73.44L11.3298 72.18L5.8498 84.18L12.3298 89.67C10.9629 93.9104 9.95928 98.2595 9.32981 102.67L0.999805 104.76L0.549805 117.9L8.64981 120.54C8.98485 124.99 9.7042 129.404 10.7998 133.73L3.9598 138.73L8.60981 151.08L17.0698 150.4C19.0705 154.379 21.4126 158.176 24.0698 161.75L19.6798 169.06L28.6798 178.67L36.2398 174.8C39.6304 177.705 43.2562 180.324 47.0798 182.63L45.8198 191.02L57.8198 196.47L63.3498 190.03C67.5927 191.4 71.9405 192.42 76.3498 193.08L78.3498 201.31L91.5298 201.76L94.1298 193.69C98.5813 193.336 102.996 192.617 107.33 191.54L112.33 198.34L124.67 193.73L124.03 185.27C127.996 183.221 131.792 180.857 135.38 178.2L142.65 182.58L152.3 173.58L148.43 165.98C151.337 162.598 153.947 158.971 156.23 155.14L164.62 156.4L170.1 144.4L163.62 138.9C165.01 134.663 166.03 130.313 166.67 125.9L175.07 123.88ZM86.2798 166.45C75.9677 166.102 65.9907 162.703 57.6106 156.683C49.2305 150.664 42.824 142.294 39.2014 132.633C35.5788 122.972 34.9029 112.453 37.2592 102.408C39.6155 92.3628 44.8981 83.242 52.4388 76.1995C59.9795 69.1569 69.4395 64.509 79.6222 62.8437C89.8049 61.1783 100.253 62.5704 109.644 66.8438C119.035 71.1172 126.948 78.0799 132.382 86.8512C137.816 95.6225 140.526 105.808 140.17 116.12C139.695 129.94 133.752 143.005 123.646 152.443C113.54 161.881 100.1 166.92 86.2798 166.45Z" fill="white" fill-opacity="0.63"/>
<path d="M400 80.42L403.31 77.33L402 74.72C402.999 73.5505 403.899 72.2994 404.69 70.98L407.59 71.41L409.46 67.27L407.24 65.38C407.718 63.9162 408.069 62.414 408.29 60.89L411.14 60.18L411.28 55.64L408.5 54.74C408.378 53.2024 408.13 51.6773 407.76 50.18L410.11 48.43L408.51 44.18L405.6 44.41C404.898 43.0393 404.085 41.7282 403.17 40.49L404.68 37.99L401.57 34.67L398.97 36C397.799 35.003 396.548 34.1033 395.23 33.31L395.65 30.41L391.52 28.52L389.62 30.75C388.153 30.2933 386.652 29.9589 385.13 29.75L384.42 26.91L379.88 26.74L378.97 29.54C377.438 29.6571 375.919 29.9046 374.43 30.28L372.69 27.93L368.43 29.52L368.67 32.44C367.295 33.1349 365.984 33.9479 364.75 34.87L362.23 33.36L358.91 36.45L360.2 39C359.193 40.1661 358.29 41.4175 357.5 42.74L354.61 42.31L352.73 46.45L354.96 48.35C354.498 49.8116 354.163 51.3105 353.96 52.83L351.1 53.54L350.96 58.08L353.75 58.98C353.864 60.5179 354.108 62.0434 354.48 63.54L352.12 65.28L353.72 69.53L356.64 69.31C357.342 70.6807 358.154 71.9917 359.07 73.23L357.56 75.73L360.67 79.05L363.27 77.72C364.439 78.7202 365.69 79.6201 367.01 80.41L366.58 83.3L370.72 85.19L372.62 82.97C374.088 83.4219 375.589 83.7563 377.11 83.97L377.82 86.81L382.36 86.98L383.27 84.18C384.802 84.0636 386.321 83.816 387.81 83.44L389.55 85.79L393.81 84.2L393.58 81.28C394.951 80.5841 396.259 79.7711 397.49 78.85L400 80.42ZM376.38 61.29C375.507 60.3543 374.931 59.1806 374.725 57.9174C374.518 56.6541 374.692 55.3582 375.222 54.1934C375.753 53.0287 376.617 52.0475 377.705 51.374C378.794 50.7004 380.057 50.3648 381.337 50.4096C382.616 50.4544 383.853 50.8775 384.891 51.6255C385.93 52.3735 386.723 53.4128 387.171 54.6118C387.619 55.8108 387.701 57.1157 387.407 58.3614C387.113 59.6071 386.457 60.7376 385.52 61.61C384.898 62.1961 384.167 62.653 383.367 62.9544C382.568 63.2558 381.717 63.3957 380.863 63.3659C380.009 63.3362 379.17 63.1374 378.394 62.781C377.617 62.4247 376.919 61.9179 376.34 61.29H376.38Z" fill="white" fill-opacity="0.63"/>
<path d="M279 215.34L268.66 208.19C267.646 204.467 266.252 200.858 264.5 197.42L267.15 187.02L252.15 170.96L241.59 172.89C238.277 170.905 234.768 169.267 231.12 168L224.7 157.19L202.7 156.44L195.56 166.78C191.841 167.793 188.235 169.184 184.8 170.93L174.4 168.28L158.34 183.28L160.27 193.82C158.287 197.14 156.651 200.655 155.39 204.31L144.58 210.73L143.83 232.73L154.18 239.87C155.176 243.613 156.567 247.24 158.33 250.69L155.65 261L170.65 277.06L181.14 275.14C184.477 277.127 188.009 278.769 191.68 280.04L198.09 290.83L220.09 291.59L227.22 281.25C230.972 280.237 234.611 278.843 238.08 277.09L248.42 279.73L264.49 264.73L262.56 254.19C264.549 250.87 266.184 247.351 267.44 243.69L278.25 237.27L279 215.34ZM210.55 248.73C205.666 248.563 200.941 246.952 196.973 244.1C193.004 241.248 189.971 237.283 188.256 232.707C186.541 228.131 186.221 223.15 187.337 218.392C188.453 213.634 190.954 209.314 194.525 205.978C198.096 202.642 202.576 200.44 207.398 199.65C212.221 198.859 217.17 199.517 221.618 201.539C226.067 203.561 229.817 206.857 232.392 211.01C234.968 215.163 236.255 219.986 236.09 224.87C235.86 231.42 233.041 237.612 228.25 242.085C223.46 246.559 217.09 248.949 210.54 248.73H210.55Z" fill="white" fill-opacity="0.63"/>
<path d="M302.55 153H302.48L285.16 152.41C284.809 152.404 284.465 152.309 284.161 152.134C283.857 151.959 283.602 151.71 283.42 151.41L278.75 143.56C276.233 142.639 273.798 141.509 271.47 140.18L264 141.47C263.652 141.534 263.293 141.509 262.958 141.397C262.622 141.285 262.32 141.09 262.08 140.83L250.25 128.17C250.002 127.908 249.825 127.586 249.738 127.236C249.65 126.885 249.654 126.518 249.75 126.17L251.64 118.76C250.469 116.359 249.512 113.859 248.78 111.29L241.25 106.09C240.958 105.89 240.721 105.619 240.562 105.302C240.403 104.986 240.327 104.634 240.34 104.28L240.93 86.9601C240.942 86.6104 241.039 86.2689 241.213 85.9656C241.388 85.6622 241.634 85.4063 241.93 85.2201L249.8 80.5501C250.707 78.0389 251.835 75.6128 253.17 73.3001L251.79 65.7701C251.725 65.4205 251.75 65.0603 251.862 64.7229C251.974 64.3855 252.169 64.0818 252.43 63.8401L265.09 52.0201C265.352 51.7709 265.673 51.5931 266.023 51.5038C266.373 51.4145 266.741 51.4167 267.09 51.5101L274.53 53.4101C276.925 52.2385 279.418 51.2782 281.98 50.5401L287.18 43.0101C287.373 42.711 287.643 42.4689 287.961 42.3089C288.279 42.149 288.634 42.0769 288.99 42.1001L306.3 42.7001C306.652 42.7075 306.996 42.803 307.302 42.9776C307.608 43.1523 307.865 43.4006 308.05 43.7001L312.72 51.5601C315.219 52.4776 317.635 53.6084 319.94 54.9401L327.5 53.5501C327.848 53.4854 328.207 53.5102 328.542 53.6222C328.878 53.7341 329.18 53.9295 329.42 54.1901L341.25 66.8501C341.496 67.1134 341.672 67.4352 341.759 67.7852C341.847 68.1352 341.844 68.5017 341.75 68.8501L339.85 76.2801C341.021 78.6764 341.985 81.1689 342.73 83.7301L350.25 88.9301C350.542 89.1305 350.778 89.4016 350.938 89.7181C351.097 90.0346 351.173 90.3861 351.16 90.7401L350.57 108.05C350.558 108.401 350.461 108.744 350.286 109.049C350.112 109.354 349.866 109.612 349.57 109.8L341.7 114.47C340.786 116.976 339.659 119.398 338.33 121.71L339.71 129.25C339.775 129.598 339.75 129.957 339.638 130.293C339.526 130.629 339.33 130.93 339.07 131.17L326.33 143C326.068 143.248 325.746 143.425 325.395 143.512C325.045 143.6 324.678 143.596 324.33 143.5L316.93 141.61C314.519 142.776 312.013 143.736 309.44 144.48L304.29 152C304.104 152.297 303.849 152.543 303.545 152.718C303.242 152.892 302.9 152.989 302.55 153ZM286.46 148.23L301.46 148.74L306.46 141.55C306.737 141.13 307.162 140.831 307.65 140.71C310.464 139.941 313.194 138.892 315.8 137.58C316.254 137.361 316.771 137.308 317.26 137.43L324.26 139.22L335.26 128.97L334 121.74C333.903 121.235 333.995 120.711 334.26 120.27C335.745 117.794 336.968 115.17 337.91 112.44C338.069 111.945 338.403 111.526 338.85 111.26L346.38 106.8L346.89 91.8001L339.69 86.8001C339.311 86.5411 339.026 86.1654 338.88 85.7301C338.88 85.6801 338.88 85.6201 338.88 85.5601C338.109 82.796 337.064 80.116 335.76 77.5601C335.528 77.1026 335.472 76.5765 335.6 76.0801L337.4 69.0001L327.15 58.0001L319.96 59.3201C319.458 59.4111 318.94 59.3188 318.5 59.0601C316.019 57.5719 313.392 56.3421 310.66 55.3901C310.503 55.3399 310.352 55.2728 310.21 55.1901C309.922 55.0102 309.682 54.7632 309.51 54.4701L305 46.9201L290 46.4001L285 53.6101C284.702 54.0328 284.262 54.3344 283.76 54.4601C280.975 55.2211 278.274 56.2632 275.7 57.5701C275.246 57.8017 274.723 57.8586 274.23 57.7301L267.15 55.9301L256.15 66.1801L257.47 73.3501C257.548 73.8024 257.482 74.2678 257.28 74.6801L257.18 74.8501C255.693 77.3357 254.469 79.97 253.53 82.7101C253.364 83.1799 253.039 83.5764 252.61 83.8301L245.08 88.3001L244.57 103.3L251.78 108.3C252.191 108.581 252.489 109 252.62 109.48C253.369 112.288 254.412 115.01 255.73 117.6C255.801 117.748 255.858 117.902 255.9 118.06C255.975 118.389 255.975 118.731 255.9 119.06L254.1 126.06L264.35 137.06L271.49 135.75C271.989 135.659 272.504 135.751 272.94 136.01C275.44 137.495 278.083 138.725 280.83 139.68C281.325 139.827 281.745 140.161 282 140.61L286.46 148.23ZM295.73 129.26C295.36 129.26 294.99 129.26 294.62 129.26C286.307 129.114 278.388 125.69 272.587 119.734C266.786 113.778 263.573 105.771 263.646 97.4574C263.719 89.1436 267.073 81.1951 272.978 75.342C278.883 69.4889 286.861 66.205 295.175 66.205C303.489 66.205 311.467 69.4889 317.372 75.342C323.276 81.1951 326.63 89.1436 326.704 97.4574C326.777 105.771 323.563 113.778 317.762 119.734C311.961 125.69 304.043 129.114 295.73 129.26ZM295.73 70.1701C288.465 70.2953 281.544 73.2852 276.474 78.4887C271.403 83.6923 268.593 90.6882 268.656 97.9535C268.719 105.219 271.649 112.165 276.808 117.281C281.968 122.396 288.939 125.266 296.205 125.266C303.47 125.266 310.442 122.396 315.601 117.281C320.761 112.165 323.691 105.219 323.754 97.9535C323.816 90.6882 321.007 83.6923 315.936 78.4887C310.865 73.2852 303.944 70.2953 296.68 70.1701H295.73Z" fill="white" fill-opacity="0.63"/>
<path d="M342.44 28.32L335.26 26.4L333.34 19.22L336.15 16.42L339.11 22.55L345.25 25.52L342.44 28.32Z" fill="#E0E0E0"/>
<path d="M342.88 23.5201C343.19 23.2095 343.437 22.8408 343.605 22.435C343.773 22.0292 343.86 21.5943 343.86 21.1551C343.86 20.7158 343.773 20.2809 343.605 19.8751C343.437 19.4693 343.19 19.1006 342.88 18.7901C342.569 18.4795 342.201 18.2331 341.795 18.065C341.389 17.897 340.954 17.8104 340.515 17.8104C340.076 17.8104 339.641 17.897 339.235 18.065C338.829 18.2331 338.46 18.4795 338.15 18.7901L341.72 13.4301L346.5 15.8501L347.55 20.8501L342.88 23.5201Z" fill="#E0E0E0"/>
<path d="M335.58 17L340.84 11.74L348 13.65L349.93 20.82L344.67 26.08L337.5 24.15L335.58 17ZM345.13 21.3C345.598 20.8314 345.916 20.2344 346.045 19.5847C346.174 18.9349 346.108 18.2615 345.854 17.6496C345.601 17.0377 345.171 16.5147 344.62 16.1467C344.07 15.7788 343.422 15.5824 342.76 15.5824C342.097 15.5824 341.45 15.7788 340.899 16.1467C340.348 16.5147 339.919 17.0377 339.665 17.6496C339.411 18.2615 339.345 18.9349 339.474 19.5847C339.603 20.2344 339.921 20.8314 340.39 21.3C341.023 21.9215 341.876 22.2679 342.764 22.2642C343.651 22.2604 344.501 21.9068 345.13 21.28V21.3Z" fill="#F0F0F0"/>
<path d="M49.22 219.71L53.07 218.67L54.1 214.82L52.6 213.32L51.01 216.61L47.71 218.2L49.22 219.71Z" fill="#E0E0E0"/>
<path d="M48.9999 217.13C48.6991 216.786 48.5401 216.341 48.5552 215.885C48.5703 215.428 48.7584 214.994 49.0814 214.671C49.4044 214.348 49.8381 214.16 50.2946 214.145C50.7511 214.13 51.1963 214.289 51.5399 214.59L49.6299 211.72L46.9999 213L46.4399 215.7L48.9999 217.13Z" fill="#E0E0E0"/>
<path d="M52.9 213.62L50.08 210.8L46.23 211.8L45.23 215.65L48 218.5L51.85 217.5L52.9 213.62ZM47.78 215.93C47.5946 215.768 47.4445 215.569 47.339 215.346C47.2335 215.124 47.1749 214.882 47.1667 214.635C47.1585 214.389 47.201 214.144 47.2915 213.915C47.3821 213.685 47.5187 213.477 47.6929 213.303C47.8672 213.129 48.0753 212.992 48.3045 212.902C48.5337 212.811 48.779 212.769 49.0253 212.777C49.2716 212.785 49.5136 212.844 49.7363 212.949C49.959 213.055 50.1577 213.205 50.32 213.39C50.6209 213.734 50.7799 214.179 50.7647 214.635C50.7496 215.092 50.5615 215.526 50.2385 215.849C49.9155 216.172 49.4818 216.36 49.0253 216.375C48.5688 216.39 48.1236 216.231 47.78 215.93Z" fill="#F0F0F0"/>
<path d="M35.3597 8.66001L38.5597 11.86C38.9599 12.2533 39.4986 12.4737 40.0597 12.4737C40.6208 12.4737 41.1595 12.2533 41.5597 11.86C41.9506 11.4586 42.1694 10.9204 42.1694 10.36C42.1694 9.79966 41.9506 9.26145 41.5597 8.86001L38.3697 5.67001C37.9682 5.27906 37.43 5.0603 36.8697 5.0603C36.3093 5.0603 35.7711 5.27906 35.3697 5.67001C34.978 6.06846 34.7577 6.60427 34.7559 7.16297C34.754 7.72167 34.9707 8.25895 35.3597 8.66001Z" fill="#F0F0F0"/>
<path d="M33.1097 0.710036C33.9447 0.477839 34.8294 0.494537 35.6551 0.758086C36.4807 1.02163 37.2115 1.52056 37.7575 2.1936C38.3036 2.86664 38.6413 3.68449 38.729 4.54674C38.8168 5.409 38.6509 6.27811 38.2516 7.04737C37.8523 7.81663 37.2371 8.45256 36.4815 8.87706C35.7258 9.30156 34.8627 9.49617 33.998 9.43698C33.1333 9.37779 32.3047 9.06738 31.614 8.54387C30.9233 8.02036 30.4004 7.30653 30.1097 6.49003C29.9252 5.9136 29.8564 5.30635 29.9075 4.70325C29.9585 4.10014 30.1283 3.51309 30.4072 2.97587C30.686 2.43866 31.0683 1.9619 31.5321 1.57303C31.996 1.18417 32.5321 0.890875 33.1097 0.710036Z" fill="#E0E0E0"/>
<path d="M29.6296 5.95469L30.0928 7.24402L39.5981 3.8294L39.1349 2.54007L29.6296 5.95469Z" fill="#F0F0F0"/>
<path d="M209 350.56C316.082 350.56 402.89 345.492 402.89 339.24C402.89 332.988 316.082 327.92 209 327.92C101.917 327.92 15.1099 332.988 15.1099 339.24C15.1099 345.492 101.917 350.56 209 350.56Z" fill="#F5F5F5"/>
<path d="M45.7202 43.65C44.7202 39.24 45.1602 35.5399 47.0602 32.5199C48.9602 29.4999 52.0602 27.5199 56.4702 26.5199C60.8802 25.5199 64.6902 25.92 67.6702 27.78C70.6502 29.64 72.6702 32.78 73.6702 37.08C74.3762 39.734 74.4345 42.5187 73.8402 45.1999C73.2588 47.4267 72.0304 49.4311 70.3102 50.96C68.267 52.6801 65.8147 53.8443 63.1902 54.3399C60.6175 55.023 57.9236 55.1153 55.3102 54.61C53.0385 54.0579 50.9838 52.839 49.4102 51.11C47.5302 49.0014 46.2553 46.4238 45.7202 43.65ZM54.0602 41.79C54.6802 44.51 55.6302 46.3499 56.9102 47.3099C57.5709 47.7505 58.3139 48.0529 59.0945 48.199C59.8752 48.345 60.6772 48.3317 61.4525 48.1598C62.2279 47.9879 62.9604 47.6611 63.6062 47.1988C64.2519 46.7365 64.7975 46.1485 65.2102 45.47C65.9302 44.08 65.9402 41.87 65.2602 38.86C64.6802 36.32 63.7435 34.58 62.4502 33.64C61.799 33.1726 61.0514 32.8572 60.2622 32.717C59.473 32.5768 58.6625 32.6154 57.8902 32.83C57.1172 32.9747 56.3872 33.2929 55.755 33.7606C55.1227 34.2282 54.6048 34.8332 54.2402 35.53C53.5002 37 53.4302 39 54.0602 41.79Z" fill="#263238"/>
<path d="M77.5904 40.3499C77.2352 38.9871 77.1718 37.5647 77.4045 36.1757C77.6371 34.7867 78.1605 33.4626 78.9404 32.2899C79.8147 31.0441 80.9264 29.9831 82.2117 29.168C83.4971 28.3529 84.9307 27.7996 86.4304 27.5399C90.3437 26.6532 93.5571 27.1166 96.0704 28.9299C98.1856 30.5696 99.6236 32.9301 100.11 35.5617C100.597 38.1933 100.099 40.912 98.7104 43.1999C97.1504 45.5799 94.6104 47.1666 91.0904 47.9599C88.3785 48.7181 85.4852 48.4841 82.9304 47.2999C81.5643 46.6322 80.3712 45.6573 79.4448 44.4516C78.5184 43.2458 77.8837 41.8419 77.5904 40.3499ZM85.1004 38.6199C85.3027 40.0173 85.9851 41.3007 87.0304 42.2499C87.4448 42.5635 87.9225 42.7832 88.4303 42.8936C88.9381 43.004 89.4638 43.0026 89.971 42.8893C90.4782 42.7761 90.9546 42.5538 91.3673 42.2379C91.7799 41.922 92.1188 41.52 92.3604 41.0599C92.884 39.7167 92.9334 38.235 92.5004 36.8599C92.29 35.4953 91.6154 34.245 90.5904 33.3199C90.1926 32.9974 89.7259 32.771 89.2264 32.6583C88.7269 32.5456 88.2081 32.5495 87.7104 32.6699C87.1915 32.7774 86.704 33.0017 86.2847 33.3257C85.8654 33.6497 85.5254 34.065 85.2904 34.5399C84.7519 35.8358 84.6846 37.2795 85.1004 38.6199Z" fill="#263238"/>
<path d="M107.58 51.57L101.45 24.57L108.45 22.97L109.11 25.86C109.604 24.7074 110.321 23.664 111.22 22.79C112.207 21.9525 113.385 21.372 114.65 21.1C115.819 20.782 117.05 20.7637 118.228 21.0468C119.406 21.33 120.493 21.9054 121.39 22.72C123.367 24.5676 124.707 26.9935 125.22 29.65C125.96 32.9 125.74 35.56 124.58 37.65C124.028 38.6492 123.266 39.5165 122.346 40.1917C121.425 40.8669 120.369 41.3338 119.25 41.56C118.172 41.8155 117.055 41.8597 115.96 41.69C114.91 41.506 113.909 41.1078 113.02 40.52L115.14 49.85L107.58 51.57ZM111.19 32.71C111.374 33.9589 111.998 35.101 112.95 35.93C113.332 36.2223 113.775 36.4245 114.246 36.5215C114.717 36.6185 115.204 36.6077 115.67 36.49C116.103 36.4032 116.51 36.2159 116.857 35.9432C117.205 35.6705 117.483 35.32 117.67 34.92C118.095 33.6684 118.095 32.3115 117.67 31.06C117.487 29.8048 116.885 28.6485 115.96 27.78C115.617 27.4952 115.214 27.2929 114.78 27.1889C114.347 27.0849 113.895 27.0818 113.46 27.18C113.001 27.2792 112.57 27.4809 112.199 27.77C111.829 28.0592 111.528 28.4284 111.32 28.85C110.831 30.0827 110.785 31.4471 111.19 32.71Z" fill="#263238"/>
<path d="M128.43 33.2999L135.71 30.9099C136.097 31.6137 136.7 32.1746 137.43 32.5099C138.216 32.7374 139.047 32.7556 139.842 32.5626C140.636 32.3696 141.367 31.9723 141.96 31.4099C142.126 31.2335 142.247 31.0192 142.311 30.7857C142.376 30.5522 142.382 30.3065 142.33 30.0699C142.27 29.7992 142.13 29.5526 141.929 29.362C141.728 29.1713 141.474 29.0452 141.2 28.9999C140.07 28.8759 138.93 28.8759 137.8 28.9999C135.904 29.1612 133.997 29.1612 132.1 28.9999C130.99 28.8388 129.949 28.3634 129.1 27.6299C128.195 26.8462 127.569 25.7887 127.318 24.6177C127.068 23.4467 127.205 22.2258 127.71 21.1399C128.293 19.978 129.2 19.0092 130.32 18.3499C131.915 17.4437 133.648 16.8052 135.45 16.4599C137.17 15.9931 138.949 15.7775 140.73 15.8199C141.849 15.892 142.934 16.2352 143.89 16.8199C144.91 17.5076 145.775 18.3998 146.43 19.4399L139.43 21.7499C139.169 21.2289 138.734 20.8152 138.2 20.5799C137.471 20.319 136.68 20.2841 135.93 20.4799C135.268 20.5723 134.654 20.8776 134.18 21.3499C134.03 21.5109 133.921 21.7063 133.864 21.9189C133.806 22.1316 133.802 22.3551 133.85 22.5699C133.904 22.8064 134.029 23.0209 134.208 23.1851C134.386 23.3493 134.61 23.4556 134.85 23.4899C135.968 23.6197 137.099 23.5961 138.21 23.4199C140.139 23.1405 142.095 23.1136 144.03 23.3399C145.248 23.5119 146.388 24.0368 147.31 24.8499C148.144 25.6061 148.724 26.6015 148.97 27.6999C149.226 28.8777 149.133 30.1048 148.7 31.2299C148.172 32.562 147.251 33.7022 146.06 34.4999C144.306 35.6465 142.341 36.4318 140.28 36.8099C136.714 37.6233 134.047 37.6933 132.28 37.0199C130.559 36.3325 129.176 34.9967 128.43 33.2999Z" fill="#263238"/>
<path d="M152.85 8.56995H161.06V14.8699L159.55 27.5399H154.47L152.85 14.8899V8.56995ZM153.25 29.4499H160.91V36.2299H153.25V29.4499Z" fill="#263238"/>
<path d="M87.6797 94.5799H87.4998C82.9998 92.8299 80.3098 91.1299 78.9098 89.0799C77.8139 89.2876 76.6802 89.1331 75.6798 88.6399C74.5079 88.0663 73.5357 87.1534 72.8898 86.0199C72.5502 86.2805 72.1503 86.451 71.7273 86.5157C71.3042 86.5804 70.8716 86.5371 70.4698 86.3899C69.2373 85.9288 68.1857 85.0839 67.4698 83.9799C67.0219 84.3135 66.4653 84.4669 65.9098 84.4099C62.9098 84.1699 58.9098 78.2499 58.6198 71.9499C58.6168 71.8169 58.6649 71.6879 58.7542 71.5893C58.8435 71.4907 58.9671 71.4301 59.0998 71.4199C59.1654 71.4172 59.231 71.4275 59.2927 71.4502C59.3544 71.4729 59.411 71.5075 59.4593 71.5521C59.5076 71.5967 59.5466 71.6503 59.5741 71.71C59.6017 71.7697 59.6172 71.8342 59.6198 71.8999C59.8998 77.8999 63.7298 83.2299 65.9998 83.4099C66.1649 83.4284 66.3321 83.4141 66.4917 83.3678C66.6513 83.3215 66.8002 83.244 66.9298 83.1399C66.1477 81.7141 65.6565 80.1473 65.4849 78.5302C65.3132 76.9131 65.4644 75.278 65.9298 73.7199C66.7898 70.7199 67.5498 69.5399 68.4698 69.7199C70.1898 70.1499 69.9598 76.7199 69.0498 81.0099C68.9119 81.7836 68.6267 82.5237 68.2098 83.1899C68.7993 84.1784 69.6892 84.9527 70.7498 85.3999C71.0324 85.5075 71.34 85.5317 71.6361 85.4697C71.9321 85.4077 72.2041 85.262 72.4198 85.0499C71.6398 83.1199 71.4198 80.4799 72.5398 77.1199C73.9398 72.6899 74.5398 72.5699 74.8498 72.4899C74.9664 72.4654 75.0874 72.4729 75.2001 72.5116C75.3128 72.5504 75.4129 72.6189 75.4898 72.7099C76.4198 73.7599 75.3098 80.6399 74.1498 84.0399C74.0139 84.4491 73.8257 84.839 73.5898 85.1999C74.1263 86.2815 75.0003 87.159 76.0798 87.6999C76.7878 88.0442 77.575 88.1926 78.3598 88.1299C78.2698 87.9399 78.1898 87.7499 78.1098 87.5499C77.3198 85.3999 77.7098 82.9299 79.2998 79.9699C80.3498 78.0199 81.2098 77.0999 82.0098 77.0999C82.2221 77.1027 82.4292 77.1664 82.6065 77.2834C82.7837 77.4004 82.9237 77.5657 83.0098 77.7599C83.8798 79.3699 83.2498 84.6799 81.5298 87.3199C81.127 87.9251 80.5669 88.4091 79.9098 88.7199C81.2498 90.4799 83.7998 92.0299 87.9098 93.6099C87.9714 93.6321 88.0279 93.6664 88.0761 93.7109C88.1242 93.7553 88.1629 93.809 88.1899 93.8686C88.217 93.9283 88.2318 93.9928 88.2335 94.0583C88.2351 94.1237 88.2237 94.1889 88.1998 94.2499C88.1609 94.3541 88.0891 94.4427 87.9952 94.5022C87.9013 94.5618 87.7905 94.5891 87.6797 94.5799ZM81.9998 78.1099C81.9998 78.1099 81.4298 78.1099 80.1698 80.4599C78.7198 83.1399 78.3498 85.3499 79.0398 87.2099C79.1234 87.4402 79.2237 87.6641 79.3398 87.8799C79.8814 87.6561 80.3419 87.2723 80.6598 86.7799C82.0598 84.6399 82.7298 80.2399 82.2098 78.5199C82.1398 78.1699 81.9998 78.1099 81.9998 78.1099ZM74.8198 73.8999C74.2784 75.0384 73.8303 76.2189 73.4798 77.4299C72.7128 79.5286 72.5806 81.8066 73.0998 83.9799L73.1898 83.7199C74.2399 80.5502 74.7997 77.2386 74.8498 73.8999H74.8198ZM68.2398 70.7499C68.0698 70.8999 67.5798 71.5299 66.8898 73.9699C66.0737 76.7082 66.3311 79.6546 67.6098 82.2099C67.8149 81.7628 67.966 81.2928 68.0598 80.8099C69.1298 75.8999 68.8298 71.4599 68.2698 70.7499H68.2398Z" fill="#263238"/>
<path d="M125.7 147C124.101 147.015 122.527 146.605 121.14 145.81C121.026 145.741 120.943 145.631 120.909 145.502C120.875 145.373 120.894 145.236 120.96 145.12C120.993 145.064 121.037 145.014 121.089 144.975C121.141 144.936 121.201 144.908 121.264 144.892C121.327 144.876 121.393 144.873 121.458 144.883C121.522 144.893 121.584 144.916 121.64 144.95C125.21 147.04 129.82 145.58 130.77 144.05C130.838 143.954 130.887 143.845 130.913 143.73C130.939 143.615 130.941 143.496 130.92 143.38C129.094 143.485 127.287 142.97 125.79 141.92C123.24 140.33 123.04 139.85 123.06 139.47C123.065 139.361 123.099 139.255 123.159 139.163C123.218 139.072 123.302 138.998 123.4 138.95C124.4 138.45 128.91 140.52 130.79 141.76C131.015 141.91 131.223 142.084 131.41 142.28C132.148 142.112 132.814 141.713 133.31 141.14C133.589 140.812 133.79 140.426 133.9 140.01H133.7C132.1 140.17 130.5 139.48 128.79 137.9C127.61 136.82 127.16 136.07 127.31 135.48C127.355 135.314 127.447 135.165 127.575 135.05C127.702 134.934 127.86 134.858 128.03 134.83C129.41 134.48 132.83 135.94 134.22 137.47C134.53 137.803 134.75 138.209 134.86 138.65C136.17 138.04 137.55 136.65 139.18 134.38C139.218 134.326 139.266 134.28 139.322 134.244C139.377 134.209 139.44 134.185 139.505 134.174C139.57 134.163 139.636 134.165 139.701 134.179C139.765 134.194 139.826 134.222 139.88 134.26C139.987 134.338 140.059 134.455 140.082 134.586C140.104 134.716 140.075 134.851 140 134.96C138.11 137.6 136.53 139.1 134.95 139.71C134.868 140.449 134.565 141.146 134.08 141.71C133.504 142.38 132.747 142.869 131.9 143.12C131.947 143.359 131.947 143.604 131.899 143.843C131.851 144.082 131.756 144.308 131.62 144.51C130.78 145.94 128.36 147 125.7 147ZM124.81 140.06C125.15 140.31 125.63 140.64 126.32 141.06C127.395 141.785 128.63 142.238 129.92 142.38C128.31 141.415 126.596 140.636 124.81 140.06ZM128.3 135.81C128.587 136.351 128.986 136.825 129.47 137.2C130.95 138.57 132.3 139.2 133.6 139.04H133.92C133.849 138.729 133.697 138.443 133.48 138.21C132.08 136.63 129 135.65 128.3 135.81Z" fill="#263238"/>
<path d="M138.94 145.63L123.36 148.46L109.21 71.24L79.1499 76.7L30.1499 163.7L35.4099 192.41L98.2599 181L102.56 204.48L132.62 199L128.32 175.52L143.9 172.69L138.94 145.63ZM60.0899 160L86.0899 114.43L93.3399 153.97L60.0899 160Z" fill="#5F8BFF"/>
<path d="M264.43 65.9999C263.957 61.1456 262.882 56.369 261.23 51.7799C259.531 47.3841 257.17 43.2734 254.23 39.5899C250.75 35.3046 246.427 31.7786 241.53 29.2299C236.197 26.3033 229.123 24.2666 220.31 23.1199C202.01 20.7333 187.75 23.9799 177.53 32.8599C167.31 41.7399 160.577 58.7399 157.33 83.8599C156.034 93.248 155.699 102.744 156.33 112.2C156.997 120.867 158.59 127.843 161.11 133.13C164.317 140.259 169.376 146.399 175.76 150.91C182.073 155.343 190.74 158.273 201.76 159.7C221.347 162.253 235.87 158.49 245.33 148.41C254.79 138.33 261.057 121.297 264.13 97.3099C265.496 86.9238 265.597 76.4103 264.43 65.9999Z" fill="#5F8BFF"/>
<path d="M210.77 149.43C208.36 149.35 205.77 149.13 203.16 148.79C194 147.6 186.92 145.28 182.1 141.9C177.293 138.506 173.493 133.876 171.1 128.5L171.05 128.39C169.13 124.39 167.87 118.64 167.32 111.39C166.737 102.681 167.046 93.9359 168.24 85.2899C171.81 57.5699 179.18 45.9999 184.73 41.1799C191.21 35.5599 199.96 33.0199 211.46 33.4199C213.82 33.4999 216.32 33.7099 218.89 34.0399C226.27 35.0399 232.12 36.6399 236.26 38.8999C239.837 40.7422 243.004 43.2901 245.57 46.3899C247.815 49.1896 249.619 52.3156 250.92 55.6599C252.249 59.389 253.109 63.2687 253.48 67.2099C254.547 76.7597 254.449 86.4036 253.19 95.9299C250.42 117.47 245.06 132.61 237.27 140.93C231.49 147.09 222.82 149.93 210.76 149.47L210.77 149.43Z" fill="#263238"/>
<path d="M230.34 66.2899L230.47 62.4999L228.14 61.74C228.041 60.4581 227.833 59.1869 227.52 57.9399L229.52 56.4799L228.18 52.9199L225.74 53.1199C225.166 51.9758 224.497 50.8819 223.74 49.8499L225 47.7399L222.4 44.9699L220.22 46.0899C219.244 45.2513 218.201 44.4954 217.1 43.8299L217.45 41.41L213.99 39.8399L212.41 41.6999C211.186 41.3034 209.932 41.0091 208.66 40.8199L208.07 38.4499L204.27 38.3199L203.52 40.6399C202.238 40.7425 200.967 40.9499 199.72 41.2599L198.25 39.2599L194.69 40.5899L194.89 43.0299C193.746 43.6042 192.652 44.2732 191.62 45.0299L189.52 43.7599L186.74 46.3499L187.86 48.5399C187.019 49.5147 186.266 50.5622 185.61 51.6699L183.19 51.2999L181.61 54.7599L183.48 56.3399C183.074 57.5642 182.779 58.8227 182.6 60.1L180.22 60.6999L180.09 64.4799L182.42 65.24C182.517 66.5253 182.725 67.8 183.04 69.0499L181.04 70.4999L182.38 74.0599L184.82 73.8599C185.388 75.0073 186.057 76.1016 186.82 77.13L185.55 79.24L188.15 82.0099L190.33 80.8999C191.305 81.7354 192.349 82.488 193.45 83.1499L193.09 85.57L196.55 87.1399L198.14 85.2899C199.367 85.6842 200.624 85.9752 201.9 86.16L202.49 88.5399L206.28 88.6699L207.03 86.3399C208.315 86.2423 209.59 86.0349 210.84 85.7199L212.29 87.7199L215.85 86.3899L215.66 83.96C216.8 83.3783 217.893 82.7097 218.93 81.96L221.03 83.2199L223.81 80.63L222.7 78.4399C223.538 77.4685 224.287 76.4243 224.94 75.32L227.36 75.6799L228.94 72.2199L227.08 70.6399C227.478 69.4175 227.769 68.1628 227.95 66.8899L230.34 66.2899ZM204.74 78.5599C201.778 78.4517 198.915 77.4685 196.511 75.7344C194.107 74.0002 192.272 71.5929 191.235 68.8162C190.198 66.0396 190.007 63.0181 190.687 60.1331C191.366 57.2481 192.884 54.629 195.05 52.6062C197.217 50.5835 199.934 49.2479 202.859 48.7679C205.783 48.288 208.785 48.6852 211.484 49.9095C214.183 51.1338 216.459 53.1303 218.024 55.6469C219.59 58.1636 220.375 61.0876 220.28 64.0499C220.217 66.0245 219.764 67.967 218.948 69.7661C218.132 71.5652 216.969 73.1854 215.525 74.5337C214.081 75.8819 212.385 76.9316 210.534 77.6226C208.683 78.3135 206.714 78.6321 204.74 78.5599Z" fill="#5F8BFF"/>
<path opacity="0.3" d="M246.12 135.87L246.4 133.31L244.86 132.69C244.857 131.819 244.784 130.949 244.64 130.09L246.03 129.2L245.32 126.73H243.66C243.332 125.927 242.933 125.154 242.47 124.42L243.41 123.06L241.81 121.06L240.28 121.7C239.66 121.087 238.991 120.525 238.28 120.02L238.65 118.4L236.4 117.16L235.22 118.35C234.416 118.019 233.587 117.755 232.74 117.56L232.46 115.93L229.91 115.64L229.28 117.18C228.411 117.184 227.544 117.264 226.69 117.42L225.8 116L223.33 116.73V118.39C222.526 118.722 221.753 119.123 221.02 119.59L219.66 118.59L217.66 120.19L218.3 121.72C217.69 122.34 217.132 123.009 216.63 123.72L215.01 123.36L213.78 125.61L214.96 126.78C214.625 127.585 214.36 128.419 214.17 129.27L212.53 129.54L212.26 132.09L213.79 132.73C213.791 133.595 213.867 134.458 214.02 135.31L212.61 136.2L213.33 138.67H215C215.334 139.469 215.735 140.239 216.2 140.97L215.2 142.33L216.8 144.33L218.35 143.68C218.965 144.295 219.635 144.854 220.35 145.35L220 147L222.25 148.23L223.42 147.06C224.224 147.383 225.054 147.64 225.9 147.83L226.19 149.47L228.74 149.75L229.36 148.22C230.244 148.219 231.127 148.145 232 148L232.89 149.41L235.35 148.69V147.03C236.154 146.692 236.929 146.291 237.67 145.83L239.01 146.83L241.01 145.22L240.36 143.69C240.976 143.07 241.541 142.401 242.05 141.69L243.66 142.05L244.9 139.8L243.72 138.64C244.041 137.835 244.299 137.006 244.49 136.16L246.12 135.87ZM233.25 134.87C232.827 135.644 232.183 136.275 231.401 136.684C230.619 137.093 229.734 137.26 228.856 137.165C227.979 137.07 227.15 136.717 226.473 136.151C225.797 135.584 225.303 134.83 225.056 133.983C224.808 133.136 224.817 132.235 225.081 131.393C225.346 130.552 225.854 129.807 226.542 129.255C227.23 128.702 228.066 128.366 228.945 128.288C229.824 128.211 230.706 128.396 231.48 128.82C232.514 129.39 233.281 130.346 233.613 131.48C233.944 132.613 233.814 133.832 233.25 134.87Z" fill="#5F8BFF"/>
<path d="M260.29 92.6499L257.29 90.5899C256.995 89.519 256.593 88.4805 256.09 87.4899L256.85 84.4899L252.53 79.8599L249.53 80.4199C248.578 79.8533 247.573 79.3811 246.53 79.0099L244.68 75.8899L238.35 75.6799L236.29 78.6799C235.218 78.9707 234.179 79.3729 233.19 79.8799L230.19 79.1099L225.56 83.4399L226.12 86.4399C225.545 87.3873 225.073 88.3929 224.71 89.4399L221.6 91.2899L221.38 97.6199L224.38 99.6799C224.671 100.759 225.073 101.804 225.58 102.8L224.82 105.8L229.14 110.43L232.14 109.88C233.092 110.446 234.097 110.918 235.14 111.29L236.98 114.4L243.32 114.62L245.37 111.62C246.451 111.327 247.5 110.924 248.5 110.42L251.5 111.18L256.13 106.86L255.58 103.86C256.148 102.909 256.621 101.904 256.99 100.86L260.1 99.0099L260.29 92.6499ZM240.56 102.27C239.152 102.222 237.791 101.757 236.648 100.935C235.504 100.113 234.63 98.97 234.136 97.6512C233.642 96.3324 233.551 94.8967 233.873 93.5258C234.195 92.1548 234.916 90.9102 235.946 89.9492C236.975 88.9883 238.267 88.3542 239.656 88.1272C241.046 87.9002 242.472 88.0905 243.754 88.6739C245.036 89.2574 246.116 90.2078 246.857 91.405C247.599 92.6023 247.969 93.9925 247.92 95.3999C247.852 97.286 247.039 99.0682 245.66 100.356C244.28 101.644 242.446 102.332 240.56 102.27Z" fill="white"/>
<path d="M282 42.12L282.52 40.87C282.873 40.6707 283.208 40.4398 283.52 40.18H284.68L286.04 38.18L285.6 37.11C285.768 36.7536 285.902 36.3819 286 36L287 35.08L286.58 32.73L285.32 32.21C285.122 31.8554 284.891 31.5205 284.63 31.21V30.05L282.68 28.69L281.6 29.14C281.205 29.0009 280.796 28.907 280.38 28.86L279.46 27.86L277.12 28.28L276.59 29.54C276.219 29.7324 275.867 29.9601 275.54 30.22H274.39L273.03 32.22L273.47 33.29C273.336 33.6861 273.242 34.0949 273.19 34.51L272.19 35.44L272.61 37.78L273.87 38.3C274.061 38.6564 274.289 38.9916 274.55 39.3V40.45L276.55 41.81L277.62 41.37C278.02 41.5 278.432 41.5904 278.85 41.64L279.77 42.64L282 42.12ZM277 35.64C276.905 35.1182 276.968 34.5801 277.179 34.0938C277.39 33.6075 277.741 33.1948 278.187 32.908C278.633 32.6211 279.154 32.473 279.685 32.4825C280.215 32.4919 280.73 32.6584 281.166 32.9609C281.601 33.2634 281.937 33.6883 282.131 34.1818C282.325 34.6753 282.368 35.2153 282.255 35.7334C282.142 36.2514 281.878 36.7243 281.496 37.0922C281.114 37.4601 280.632 37.7064 280.11 37.8C279.411 37.9225 278.693 37.7644 278.111 37.3599C277.528 36.9554 277.129 36.3372 277 35.64Z" fill="#5F8BFF"/>
<path d="M254.61 35.49L253.84 34.84C255.49 32.7933 257.529 31.0939 259.84 29.84L260.31 30.72C258.112 31.9164 256.175 33.5378 254.61 35.49Z" fill="#5F8BFF"/>
<path d="M262.59 29.7999L262.2 28.8799C265.892 27.2752 269.931 26.6285 273.94 26.9999L273.84 27.9999C269.998 27.6378 266.127 28.2572 262.59 29.7999Z" fill="#5F8BFF"/>
<path d="M260.7 36.7199L259.88 36.1599C262.289 32.9065 265.795 30.6364 269.75 29.7699L269.94 30.7699C266.244 31.5769 262.964 33.6895 260.7 36.7199Z" fill="#5F8BFF"/>
<path d="M194.34 133C194.204 132.996 194.074 132.938 193.98 132.84L191.89 130.68C190.824 130.583 189.77 130.389 188.74 130.1L185.47 131.54C185.398 131.579 185.317 131.6 185.235 131.6C185.153 131.6 185.072 131.579 185 131.54L179.52 127.91C179.449 127.863 179.392 127.799 179.353 127.724C179.315 127.649 179.296 127.564 179.3 127.48V123.92C178.631 123.083 178.042 122.186 177.54 121.24L174.73 120.16C174.651 120.129 174.582 120.079 174.527 120.015C174.473 119.95 174.436 119.873 174.42 119.79L173.12 113.35C173.103 113.268 173.107 113.182 173.131 113.102C173.156 113.022 173.2 112.949 173.26 112.89L175.42 110.8C175.523 109.735 175.717 108.681 176 107.65L174.56 104.38C174.521 104.308 174.5 104.227 174.5 104.145C174.5 104.063 174.521 103.982 174.56 103.91L178.19 98.4299C178.235 98.3577 178.299 98.2992 178.375 98.2604C178.45 98.2217 178.535 98.2042 178.62 98.2099L182.18 98.2599C183.014 97.5877 183.912 96.9983 184.86 96.4999L185.95 93.6899C185.979 93.6119 186.027 93.5426 186.09 93.4883C186.153 93.4341 186.229 93.3968 186.31 93.3799L192.75 92.0799C192.832 92.0617 192.918 92.0651 192.998 92.0896C193.079 92.1141 193.152 92.159 193.21 92.2199L195.3 94.3799C196.369 94.4774 197.426 94.6715 198.46 94.9599L201.72 93.5199C201.794 93.4805 201.876 93.4599 201.96 93.4599C202.044 93.4599 202.126 93.4805 202.2 93.5199L207.67 97.1499C207.739 97.1985 207.796 97.2627 207.836 97.3374C207.876 97.4121 207.898 97.4952 207.9 97.5799L207.84 101.14C208.512 101.976 209.105 102.873 209.61 103.82L212.41 104.91C212.488 104.939 212.557 104.987 212.612 105.05C212.666 105.113 212.703 105.189 212.72 105.27L214.03 111.71C214.045 111.792 214.041 111.877 214.016 111.957C213.992 112.037 213.949 112.11 213.89 112.17L211.72 114.27C211.62 115.332 211.426 116.382 211.14 117.41L212.58 120.68C212.619 120.754 212.64 120.836 212.64 120.92C212.64 121.004 212.619 121.086 212.58 121.16L209 126.59C208.953 126.658 208.89 126.713 208.817 126.752C208.744 126.79 208.663 126.81 208.58 126.81L205.01 126.76C204.173 127.423 203.279 128.012 202.34 128.52L201.25 131.33C201.22 131.409 201.171 131.479 201.106 131.534C201.041 131.588 200.963 131.625 200.88 131.64L194.44 133H194.34ZM188.71 129C188.756 128.991 188.804 128.991 188.85 129C189.93 129.314 191.039 129.519 192.16 129.61C192.28 129.624 192.392 129.677 192.48 129.76L194.48 131.86L200.38 130.67L201.44 127.93C201.489 127.819 201.574 127.728 201.68 127.67C202.679 127.153 203.621 126.533 204.49 125.82C204.582 125.742 204.7 125.703 204.82 125.71L208.29 125.76L211.61 120.76L210.21 117.58C210.17 117.47 210.17 117.35 210.21 117.24C210.519 116.159 210.724 115.05 210.82 113.93C210.83 113.809 210.883 113.695 210.97 113.61L213.07 111.61L211.88 105.71L209.15 104.65C209.033 104.607 208.936 104.521 208.88 104.41C208.361 103.412 207.741 102.471 207.03 101.6C206.959 101.508 206.92 101.396 206.92 101.28V97.7999L201.92 94.4799L198.75 95.8799C198.637 95.9203 198.513 95.9203 198.4 95.8799C197.316 95.5669 196.204 95.3626 195.08 95.2699C194.96 95.2557 194.848 95.2031 194.76 95.1199L192.76 93.0199L186.86 94.2199L185.81 96.9999C185.768 97.1145 185.686 97.2103 185.58 97.2699C184.577 97.7851 183.632 98.4052 182.76 99.1199C182.717 99.1589 182.666 99.1888 182.611 99.2077C182.556 99.2266 182.498 99.2341 182.44 99.2299L178.97 99.1799L175.64 104.18L177.04 107.36C177.072 107.427 177.089 107.501 177.089 107.575C177.089 107.649 177.072 107.723 177.04 107.79C176.744 108.846 176.549 109.927 176.46 111.02C176.451 111.141 176.397 111.255 176.31 111.34L174.21 113.34L175.41 119.24L178.13 120.3C178.251 120.35 178.351 120.443 178.41 120.56C178.926 121.551 179.542 122.486 180.25 123.35C180.324 123.44 180.363 123.553 180.36 123.67V127.15L185.36 130.47L188.54 129.07C188.592 129.037 188.65 129.013 188.71 129ZM193.62 125.76C191.213 125.758 188.852 125.103 186.787 123.866C184.722 122.63 183.031 120.856 181.893 118.735C180.756 116.614 180.214 114.224 180.326 111.82C180.438 109.415 181.2 107.086 182.53 105.08C183.802 103.155 185.552 101.594 187.608 100.548C189.665 99.5022 191.957 99.0081 194.262 99.114C196.567 99.2198 198.804 99.922 200.756 101.152C202.708 102.382 204.308 104.097 205.398 106.13C206.488 108.163 207.032 110.445 206.977 112.751C206.921 115.057 206.268 117.31 205.081 119.288C203.894 121.266 202.214 122.903 200.205 124.037C198.196 125.172 195.927 125.765 193.62 125.76ZM183.37 105.63C182.024 107.661 181.31 110.045 181.319 112.482C181.328 114.918 182.059 117.297 183.42 119.318C184.781 121.339 186.711 122.911 188.965 123.835C191.22 124.759 193.697 124.995 196.085 124.511C198.473 124.027 200.664 122.846 202.381 121.117C204.098 119.389 205.263 117.19 205.731 114.798C206.198 112.407 205.945 109.931 205.006 107.683C204.066 105.435 202.48 103.517 200.45 102.17C199.104 101.269 197.592 100.643 196.002 100.329C194.413 100.015 192.777 100.019 191.189 100.341C189.601 100.663 188.093 101.296 186.751 102.203C185.408 103.111 184.26 104.276 183.37 105.63Z" fill="white"/>
<path d="M384.83 154.65L369.13 152.53L379.51 74.7199L349.23 70.6399L275.78 138.26L271.92 167.19L335.21 175.73L332.05 199.4L362.33 203.48L365.49 179.82L381.19 181.94L384.83 154.65ZM305.41 143.93L344.17 108.6L338.85 148.44L305.41 143.93Z" fill="#5F8BFF"/>
<path d="M353.13 202.74H353C352.87 202.716 352.755 202.641 352.68 202.532C352.605 202.424 352.576 202.29 352.6 202.16L376 74.2199C376.026 74.0914 376.102 73.9781 376.21 73.9036C376.318 73.8291 376.45 73.7991 376.58 73.8199C376.709 73.8442 376.824 73.9188 376.899 74.0275C376.974 74.1361 377.003 74.27 376.98 74.3999L353.63 202.33C353.607 202.445 353.544 202.55 353.453 202.624C353.362 202.699 353.248 202.74 353.13 202.74Z" fill="#263238"/>
<path d="M373.83 76.3699C373.822 76.5874 373.728 76.7928 373.569 76.941C373.409 77.0891 373.197 77.1679 372.98 77.16C372.763 77.152 372.557 77.058 372.409 76.8986C372.261 76.7392 372.182 76.5274 372.19 76.31C372.198 76.0925 372.292 75.8871 372.451 75.7389C372.611 75.5908 372.823 75.512 373.04 75.52C373.257 75.5279 373.463 75.6219 373.611 75.7813C373.759 75.9407 373.838 76.1525 373.83 76.3699Z" fill="#263238"/>
<path d="M370.5 93.67C370.494 93.832 370.44 93.9886 370.345 94.12C370.25 94.2514 370.118 94.3516 369.966 94.4081C369.814 94.4646 369.649 94.4747 369.491 94.4373C369.333 94.3998 369.19 94.3164 369.08 94.1977C368.969 94.0789 368.897 93.9301 368.871 93.77C368.845 93.61 368.867 93.4459 368.935 93.2984C369.002 93.151 369.112 93.0268 369.25 92.9417C369.388 92.8565 369.548 92.8142 369.71 92.82C369.817 92.8239 369.923 92.8489 370.021 92.8937C370.119 92.9386 370.208 93.0023 370.281 93.0812C370.354 93.1602 370.411 93.2528 370.449 93.3538C370.487 93.4548 370.504 93.5623 370.5 93.67Z" fill="#263238"/>
<path d="M367.17 111C367.166 111.108 367.141 111.214 367.096 111.312C367.051 111.41 366.988 111.498 366.909 111.571C366.83 111.645 366.737 111.702 366.636 111.739C366.535 111.777 366.428 111.794 366.32 111.79C366.213 111.787 366.107 111.764 366.009 111.72C365.911 111.676 365.823 111.613 365.749 111.535C365.676 111.457 365.619 111.365 365.581 111.265C365.543 111.164 365.526 111.057 365.53 110.95C365.532 110.841 365.557 110.734 365.601 110.635C365.645 110.536 365.709 110.447 365.788 110.372C365.867 110.298 365.96 110.24 366.061 110.202C366.163 110.164 366.271 110.146 366.38 110.15C366.596 110.16 366.8 110.255 366.948 110.414C367.096 110.573 367.175 110.783 367.17 111Z" fill="#263238"/>
<path d="M360.61 129C360.588 129.2 360.492 129.386 360.342 129.52C360.192 129.655 359.997 129.729 359.795 129.729C359.593 129.729 359.399 129.655 359.248 129.52C359.098 129.386 359.002 129.2 358.98 129C358.967 128.885 358.979 128.769 359.014 128.659C359.049 128.55 359.107 128.448 359.184 128.363C359.261 128.277 359.355 128.208 359.46 128.161C359.566 128.114 359.68 128.089 359.795 128.089C359.91 128.089 360.024 128.114 360.13 128.161C360.235 128.208 360.329 128.277 360.406 128.363C360.483 128.448 360.541 128.55 360.576 128.659C360.611 128.769 360.623 128.885 360.61 129Z" fill="#263238"/>
<path d="M360.5 145.57C360.497 145.678 360.473 145.785 360.429 145.883C360.384 145.982 360.321 146.071 360.241 146.144C360.162 146.218 360.069 146.275 359.967 146.312C359.866 146.349 359.758 146.365 359.65 146.36C359.488 146.354 359.331 146.3 359.2 146.205C359.068 146.11 358.968 145.978 358.912 145.826C358.855 145.674 358.845 145.509 358.883 145.351C358.92 145.193 359.003 145.05 359.122 144.94C359.241 144.829 359.39 144.757 359.55 144.731C359.71 144.705 359.874 144.727 360.021 144.795C360.169 144.862 360.293 144.972 360.378 145.11C360.463 145.248 360.506 145.408 360.5 145.57Z" fill="#263238"/>
<path d="M357.17 162.87C357.166 163.032 357.114 163.19 357.02 163.323C356.926 163.456 356.795 163.557 356.643 163.615C356.491 163.673 356.325 163.685 356.167 163.649C356.008 163.612 355.864 163.53 355.753 163.411C355.642 163.293 355.568 163.144 355.541 162.984C355.515 162.823 355.536 162.658 355.604 162.51C355.671 162.362 355.781 162.238 355.919 162.152C356.057 162.067 356.218 162.024 356.38 162.03C356.596 162.038 356.8 162.13 356.948 162.288C357.096 162.445 357.175 162.654 357.17 162.87Z" fill="#263238"/>
<path d="M353.84 180.17C353.832 180.388 353.738 180.595 353.579 180.745C353.42 180.894 353.208 180.975 352.99 180.97C352.882 180.966 352.776 180.941 352.678 180.896C352.58 180.851 352.492 180.788 352.419 180.709C352.345 180.63 352.288 180.537 352.251 180.436C352.213 180.335 352.196 180.228 352.2 180.12C352.203 180.012 352.228 179.906 352.272 179.808C352.316 179.71 352.379 179.621 352.458 179.547C352.536 179.474 352.628 179.416 352.729 179.378C352.83 179.34 352.937 179.322 353.045 179.325C353.152 179.328 353.258 179.353 353.357 179.397C353.455 179.441 353.543 179.504 353.617 179.583C353.691 179.661 353.749 179.754 353.787 179.854C353.825 179.955 353.843 180.062 353.84 180.17Z" fill="#263238"/>
<path d="M350.5 197.48C350.494 197.642 350.44 197.799 350.345 197.93C350.25 198.061 350.118 198.162 349.966 198.218C349.814 198.275 349.649 198.285 349.491 198.247C349.333 198.21 349.19 198.126 349.08 198.008C348.969 197.889 348.897 197.74 348.871 197.58C348.845 197.42 348.867 197.256 348.935 197.108C349.002 196.961 349.112 196.837 349.25 196.752C349.388 196.666 349.548 196.624 349.71 196.63C349.818 196.632 349.924 196.657 350.023 196.701C350.122 196.745 350.21 196.809 350.284 196.888C350.358 196.967 350.415 197.061 350.452 197.162C350.489 197.264 350.505 197.372 350.5 197.48Z" fill="#263238"/>
<path d="M359.79 129.45C359.677 129.45 359.568 129.411 359.481 129.34C359.393 129.269 359.333 129.17 359.31 129.06C359.295 128.996 359.293 128.929 359.305 128.864C359.316 128.799 359.34 128.737 359.375 128.681C359.41 128.625 359.456 128.577 359.51 128.539C359.564 128.501 359.625 128.474 359.69 128.46L362.17 127.93C362.235 127.915 362.302 127.914 362.368 127.926C362.434 127.937 362.496 127.962 362.552 127.999C362.608 128.035 362.656 128.082 362.694 128.137C362.731 128.192 362.757 128.255 362.77 128.32C362.783 128.384 362.783 128.451 362.771 128.515C362.758 128.58 362.733 128.641 362.697 128.696C362.661 128.75 362.614 128.798 362.56 128.834C362.505 128.871 362.444 128.897 362.38 128.91L359.9 129.44L359.79 129.45Z" fill="#263238"/>
<path d="M368.08 120.24C366.9 123.3 365.899 126.425 365.08 129.6C364.33 133.13 364.29 141.03 364.29 141.03" fill="#263238"/>
<path d="M364.29 141.53C364.157 141.525 364.032 141.469 363.939 141.374C363.846 141.279 363.792 141.153 363.79 141.02C363.79 140.7 363.85 133.02 364.6 129.5C365.414 126.297 366.416 123.145 367.6 120.06C367.62 119.994 367.653 119.933 367.698 119.881C367.743 119.828 367.798 119.786 367.859 119.756C367.921 119.726 367.989 119.709 368.057 119.706C368.126 119.703 368.195 119.714 368.259 119.739C368.323 119.764 368.381 119.802 368.43 119.85C368.479 119.898 368.517 119.956 368.543 120.02C368.568 120.084 368.58 120.153 368.578 120.221C368.576 120.29 368.56 120.358 368.53 120.42C367.352 123.456 366.35 126.558 365.53 129.71C364.8 133.15 364.75 140.95 364.74 141.03C364.741 141.154 364.695 141.274 364.612 141.367C364.528 141.459 364.414 141.517 364.29 141.53Z" fill="#263238"/>
<path d="M181.45 227.84C182.84 205.44 180.29 164.71 222.4 170.11C267.53 175.88 254.62 228.66 254.62 228.66L181.45 227.84Z" fill="#263238"/>
<path d="M210.51 214.38C220.661 214.38 228.89 206.151 228.89 196C228.89 185.849 220.661 177.62 210.51 177.62C200.359 177.62 192.13 185.849 192.13 196C192.13 206.151 200.359 214.38 210.51 214.38Z" fill="white"/>
<path d="M212.93 177.65C204.22 176.17 194.93 182.58 194 189.08L228.51 192.26C227.29 184.85 219.83 178.83 212.93 177.65Z" fill="#263238"/>
<path d="M224.58 195.54C224.33 200.35 221.71 204.12 218.73 203.96C215.75 203.8 213.53 199.79 213.73 194.96C213.93 190.13 216.6 186.38 219.58 186.54C222.56 186.7 224.82 190.74 224.58 195.54Z" fill="#263238"/>
<path d="M210.51 215.38C206.677 215.38 202.93 214.243 199.743 212.114C196.556 209.984 194.072 206.958 192.606 203.416C191.139 199.875 190.755 195.978 191.503 192.219C192.251 188.46 194.096 185.007 196.807 182.296C199.517 179.586 202.97 177.74 206.73 176.992C210.489 176.245 214.386 176.628 217.927 178.095C221.468 179.562 224.495 182.046 226.624 185.233C228.754 188.42 229.89 192.167 229.89 196C229.885 201.138 227.842 206.065 224.208 209.698C220.575 213.331 215.649 215.375 210.51 215.38ZM210.51 178.63C207.073 178.63 203.712 179.65 200.854 181.56C197.995 183.47 195.768 186.185 194.452 189.361C193.137 192.538 192.794 196.033 193.465 199.404C194.136 202.776 195.793 205.873 198.224 208.303C200.656 210.733 203.754 212.388 207.126 213.057C210.498 213.727 213.993 213.381 217.168 212.064C220.344 210.747 223.058 208.518 224.966 205.659C226.875 202.799 227.892 199.438 227.89 196C227.885 191.393 226.052 186.977 222.793 183.72C219.535 180.463 215.117 178.633 210.51 178.63Z" fill="#5F8BFF"/>
<path opacity="0.3" d="M249.49 227.28H249.37C249.306 227.266 249.245 227.239 249.192 227.201C249.138 227.163 249.092 227.114 249.058 227.058C249.023 227.002 249 226.94 248.991 226.875C248.981 226.81 248.984 226.744 249 226.68C249 226.55 252.22 212.99 248.91 199.28C248.878 199.147 248.901 199.008 248.972 198.891C249.043 198.775 249.158 198.692 249.29 198.66C249.423 198.628 249.563 198.65 249.679 198.722C249.795 198.793 249.878 198.907 249.91 199.04C253.28 213.04 250.03 226.78 250 226.91C249.971 227.021 249.904 227.118 249.811 227.185C249.718 227.253 249.605 227.286 249.49 227.28Z" fill="white"/>
<path opacity="0.3" d="M246.7 191.76C246.604 191.759 246.51 191.731 246.429 191.68C246.348 191.629 246.283 191.556 246.24 191.47C244.997 188.723 243.404 186.148 241.5 183.81C241.417 183.708 241.378 183.577 241.391 183.446C241.404 183.315 241.469 183.194 241.57 183.11C241.621 183.067 241.68 183.035 241.743 183.016C241.807 182.996 241.874 182.99 241.94 182.996C242.006 183.003 242.07 183.022 242.128 183.054C242.187 183.085 242.238 183.128 242.28 183.18C244.231 185.586 245.868 188.23 247.15 191.05C247.179 191.109 247.195 191.173 247.198 191.238C247.202 191.304 247.192 191.369 247.169 191.431C247.147 191.492 247.113 191.549 247.068 191.597C247.023 191.645 246.97 191.683 246.91 191.71C246.844 191.741 246.773 191.758 246.7 191.76Z" fill="white"/>
<path d="M87.73 332.92H87.36C86.0339 332.883 84.7769 332.32 83.8655 331.356C82.9541 330.393 82.4629 329.106 82.5 327.78C82.5371 326.454 83.0995 325.197 84.0635 324.285C85.0274 323.374 86.3139 322.883 87.64 322.92H87.73C90.62 322.92 97.57 319.41 112.11 296.49C112.496 295.881 113.009 295.363 113.614 294.971C114.219 294.579 114.901 294.323 115.615 294.219C116.328 294.116 117.055 294.168 117.746 294.371C118.438 294.575 119.077 294.926 119.62 295.4C131.039 305.216 143.492 313.76 156.76 320.88C157.374 321.159 157.925 321.56 158.38 322.058C158.835 322.556 159.185 323.14 159.408 323.777C159.632 324.413 159.724 325.089 159.679 325.762C159.634 326.435 159.454 327.092 159.149 327.693C158.844 328.295 158.42 328.828 157.903 329.262C157.387 329.695 156.787 330.02 156.142 330.216C155.496 330.412 154.818 330.475 154.147 330.402C153.477 330.329 152.828 330.12 152.24 329.79C139.909 323.237 128.252 315.487 117.44 306.65C105.25 325 96.21 332.92 87.73 332.92Z" fill="#263238"/>
<path d="M118.67 294.5H118.24C117.454 294.386 116.746 293.965 116.269 293.33C115.793 292.694 115.589 291.896 115.7 291.11C116.41 286.11 115.53 267.48 109.22 252.98C108.94 252.339 108.893 251.621 109.086 250.949C109.28 250.277 109.702 249.694 110.28 249.3C123.98 239.97 153.16 238.85 154.4 238.81C154.794 238.797 155.187 238.861 155.556 239C155.925 239.139 156.263 239.349 156.551 239.618C156.839 239.887 157.071 240.21 157.233 240.569C157.396 240.928 157.487 241.316 157.5 241.71C157.513 242.104 157.449 242.497 157.31 242.866C157.171 243.235 156.961 243.573 156.692 243.86C156.423 244.148 156.099 244.38 155.74 244.543C155.382 244.706 154.994 244.797 154.6 244.81C154.33 244.81 128.82 245.81 115.72 253.01C121.3 267.45 122.57 285.44 121.64 291.95C121.532 292.66 121.173 293.308 120.628 293.776C120.083 294.244 119.388 294.501 118.67 294.5Z" fill="#263238"/>
<path d="M123.71 290.62C121.71 285.91 112.71 286.44 107.44 290.48C104.62 292.63 100.8 299.12 100.44 301.48C100.32 302.041 100.338 302.622 100.493 303.174C100.647 303.727 100.933 304.233 101.327 304.65C101.72 305.068 102.209 305.383 102.752 305.569C103.294 305.755 103.873 305.807 104.44 305.72C107.89 305.42 112.62 300.41 112.62 300.41C109.47 303.5 113.54 305.68 119.62 301.21C122.94 298.72 125.94 295.89 123.71 290.62Z" fill="#5F8BFF"/>
<path d="M295.71 229.16C295.664 229.17 295.616 229.17 295.57 229.16C295.506 229.143 295.447 229.113 295.395 229.072C295.343 229.031 295.3 228.98 295.268 228.922C295.236 228.865 295.216 228.801 295.21 228.735C295.203 228.669 295.21 228.603 295.23 228.54C296.56 223.9 298.01 221.07 299.92 219.54C299.621 218.464 299.677 217.321 300.08 216.28C300.546 215.065 301.369 214.019 302.44 213.28C302.149 212.965 301.942 212.582 301.839 212.166C301.736 211.75 301.74 211.314 301.85 210.9C302.212 209.647 302.961 208.541 303.99 207.74C303.619 207.325 303.416 206.787 303.42 206.23C303.42 203.23 308.93 198.71 315.18 197.85C315.313 197.831 315.447 197.866 315.554 197.947C315.661 198.028 315.731 198.147 315.75 198.28C315.769 198.413 315.734 198.547 315.653 198.654C315.572 198.761 315.453 198.831 315.32 198.85C309.38 199.66 304.4 203.96 304.42 206.23C304.418 206.568 304.547 206.895 304.78 207.14C306.125 206.228 307.639 205.593 309.232 205.272C310.825 204.95 312.467 204.95 314.06 205.27C317.13 205.86 318.38 206.51 318.24 207.44C317.96 209.19 311.43 209.56 307.05 209.04C306.265 208.969 305.502 208.748 304.8 208.39C303.857 209.061 303.156 210.019 302.8 211.12C302.714 211.411 302.715 211.721 302.802 212.013C302.889 212.304 303.058 212.563 303.29 212.76C305.15 211.76 307.76 211.4 311.21 212.16C315.74 213.16 315.91 213.71 316.02 214.04C316.055 214.157 316.058 214.281 316.028 214.399C315.998 214.517 315.937 214.624 315.85 214.71C314.9 215.71 307.95 215.24 304.46 214.38C304.039 214.284 303.632 214.133 303.25 213.93C302.217 214.558 301.422 215.511 300.99 216.64C300.701 217.37 300.622 218.167 300.76 218.94C300.938 218.833 301.122 218.737 301.31 218.65C303.38 217.65 305.88 217.83 308.97 219.15C310.97 220.02 311.97 220.8 312.07 221.59C312.074 221.793 312.024 221.993 311.923 222.169C311.823 222.345 311.677 222.49 311.5 222.59C309.97 223.59 304.63 223.45 301.85 221.97C301.211 221.623 300.678 221.107 300.31 220.48C298.68 221.98 297.36 224.65 296.16 228.84C296.124 228.931 296.062 229.009 295.982 229.066C295.902 229.123 295.808 229.155 295.71 229.16ZM301.13 219.83C301.408 220.347 301.833 220.772 302.35 221.05C304.61 222.25 309.05 222.52 310.71 221.85C311.05 221.71 311.1 221.6 311.1 221.6C311.1 221.6 311.05 221.04 308.6 219.99C305.8 218.79 303.6 218.62 301.77 219.47C301.549 219.576 301.336 219.697 301.13 219.83ZM304.47 213.26L304.72 213.33C307.977 214.08 311.328 214.333 314.66 214.08C313.478 213.642 312.26 213.307 311.02 213.08C308.866 212.496 306.589 212.559 304.47 213.26ZM305.73 207.64C306.192 207.805 306.672 207.913 307.16 207.96C312.16 208.55 316.55 207.86 317.16 207.23C316.99 207.08 316.32 206.65 313.84 206.18C311.049 205.623 308.151 206.145 305.73 207.64Z" fill="#263238"/>
<path d="M165.53 331.25C166.19 331.04 165.97 330.4 165.23 330.4H151.69C125.91 327.67 107.9 331.33 119.25 332.19C130.6 333.05 118.45 332.87 110.16 336.01C101.87 339.15 171.81 339.94 178.16 336.01C184 332.39 156.39 334.18 165.53 331.25Z" fill="#263238"/>
<path d="M262.47 335.24L144.67 331.33L139.78 217.11L278.89 220.22L262.47 335.24Z" fill="#5F8BFF"/>
<path d="M181.45 333.05C181.324 333.05 181.203 333.003 181.11 332.918C181.017 332.833 180.96 332.716 180.95 332.59L171.51 217.87C171.502 217.738 171.545 217.608 171.631 217.507C171.717 217.406 171.839 217.343 171.97 217.33C172.102 217.324 172.231 217.368 172.331 217.454C172.431 217.539 172.495 217.659 172.51 217.79L182 332.51C182.006 332.576 181.998 332.642 181.978 332.705C181.958 332.767 181.925 332.826 181.883 332.876C181.84 332.926 181.788 332.967 181.729 332.997C181.67 333.027 181.606 333.045 181.54 333.05H181.45Z" fill="#263238"/>
<path d="M262.47 335.24L294.13 330.42L304.1 224.21L278.89 220.22L262.47 335.24Z" fill="#5F8BFF"/>
<path opacity="0.2" d="M262.47 335.24L294.13 330.42L304.1 224.21L278.89 220.22L262.47 335.24Z" fill="black"/>
<path d="M154.73 309.32L151.83 241.45C151.758 239.773 152.032 238.1 152.633 236.533C153.234 234.966 154.15 233.539 155.324 232.34C156.498 231.142 157.906 230.196 159.46 229.563C161.015 228.93 162.682 228.623 164.36 228.66L252.42 230.66C254.154 230.699 255.86 231.105 257.425 231.852C258.991 232.599 260.38 233.669 261.502 234.992C262.624 236.315 263.452 237.86 263.933 239.527C264.413 241.193 264.535 242.943 264.29 244.66L254.53 313C254.108 315.993 252.595 318.725 250.283 320.672C247.971 322.619 245.021 323.644 242 323.55L166.61 321.05C163.515 320.954 160.571 319.692 158.367 317.517C156.164 315.341 154.865 312.413 154.73 309.32Z" fill="#263238"/>
<path d="M164.25 249.49L177.87 249.92L177.76 253.43L169.23 253.16L169.15 255.78L177.06 256.03L176.95 259.39L169.04 259.13L168.94 262.38L177.71 262.66L177.59 266.38L163.72 265.94L164.25 249.49Z" fill="white"/>
<path d="M180.4 266.47L180.92 250.02L189.4 250.29C190.616 250.284 191.826 250.459 192.99 250.81C193.816 251.086 194.521 251.637 194.99 252.37C195.338 252.904 195.572 253.504 195.677 254.132C195.783 254.76 195.758 255.404 195.604 256.022C195.45 256.64 195.171 257.22 194.783 257.725C194.395 258.231 193.908 258.651 193.35 258.96C192.782 259.253 192.171 259.455 191.54 259.56C192.005 259.71 192.447 259.925 192.85 260.2C193.142 260.471 193.404 260.773 193.63 261.1C193.888 261.411 194.116 261.746 194.31 262.1L196.62 266.95L190.88 266.76L188.32 261.65C188.117 261.162 187.818 260.72 187.44 260.35C187.081 260.09 186.653 259.944 186.21 259.93H185.76L185.55 266.6L180.4 266.47ZM185.82 256.85L187.96 256.92C188.415 256.892 188.866 256.829 189.31 256.73C189.645 256.679 189.949 256.504 190.16 256.24C190.377 255.973 190.5 255.643 190.51 255.3C190.529 255.071 190.497 254.841 190.416 254.627C190.334 254.412 190.206 254.219 190.04 254.06C189.482 253.699 188.823 253.528 188.16 253.57L185.92 253.5L185.82 256.85Z" fill="white"/>
<path d="M198.28 267L198.8 250.55L207.27 250.82C208.486 250.813 209.696 250.988 210.86 251.34C211.687 251.613 212.394 252.165 212.86 252.9C213.368 253.701 213.606 254.644 213.54 255.59C213.543 256.388 213.33 257.172 212.923 257.859C212.517 258.545 211.932 259.109 211.23 259.49C210.661 259.781 210.051 259.983 209.42 260.09C209.882 260.239 210.32 260.455 210.72 260.73C211.019 260.993 211.285 261.292 211.51 261.62C211.766 261.933 211.993 262.267 212.19 262.62L214.5 267.46L208.76 267.28L206.2 262.17C205.996 261.683 205.697 261.241 205.32 260.87C204.963 260.6 204.528 260.453 204.08 260.45H203.64L203.42 267.13L198.28 267ZM203.69 257.38L205.84 257.44C206.295 257.423 206.747 257.362 207.19 257.26C207.523 257.21 207.824 257.035 208.03 256.77C208.254 256.508 208.378 256.175 208.38 255.83C208.402 255.602 208.372 255.372 208.292 255.157C208.213 254.943 208.085 254.749 207.92 254.59C207.363 254.22 206.697 254.048 206.03 254.1L203.8 254.03L203.69 257.38Z" fill="white"/>
<path d="M215.32 259.36C215.243 258.212 215.421 257.061 215.841 255.99C216.262 254.919 216.914 253.955 217.752 253.166C218.589 252.377 219.591 251.784 220.685 251.428C221.779 251.073 222.939 250.964 224.08 251.11C225.232 251.072 226.379 251.265 227.455 251.679C228.53 252.093 229.511 252.719 230.34 253.52C231.08 254.372 231.638 255.365 231.982 256.439C232.326 257.514 232.448 258.647 232.34 259.77C232.348 261.404 231.964 263.015 231.22 264.47C230.546 265.66 229.538 266.627 228.32 267.25C226.885 267.936 225.297 268.239 223.71 268.13C222.128 268.143 220.563 267.802 219.13 267.13C217.91 266.468 216.915 265.459 216.27 264.23C215.514 262.724 215.185 261.04 215.32 259.36ZM220.4 259.54C220.25 260.801 220.536 262.074 221.21 263.15C221.525 263.502 221.908 263.787 222.336 263.988C222.764 264.188 223.228 264.301 223.7 264.319C224.172 264.336 224.643 264.259 225.084 264.091C225.526 263.923 225.929 263.667 226.27 263.34C227.011 262.217 227.363 260.882 227.27 259.54C227.404 258.335 227.11 257.121 226.44 256.11C226.137 255.761 225.762 255.481 225.341 255.289C224.92 255.097 224.463 254.999 224 255C223.533 254.966 223.065 255.039 222.63 255.212C222.196 255.385 221.806 255.655 221.49 256C220.733 257.021 220.348 258.27 220.4 259.54Z" fill="white"/>
<path d="M234.91 268.21L235.43 251.75L243.9 252.02C245.116 252.018 246.325 252.193 247.49 252.54C248.313 252.821 249.018 253.37 249.49 254.1C249.995 254.902 250.233 255.844 250.17 256.79C250.175 257.59 249.963 258.376 249.556 259.064C249.149 259.753 248.563 260.318 247.86 260.7C247.288 260.983 246.679 261.182 246.05 261.29C246.513 261.442 246.951 261.661 247.35 261.94C247.649 262.203 247.914 262.502 248.14 262.83C248.398 263.141 248.625 263.476 248.82 263.83L251.13 268.68L245.39 268.5L242.83 263.38C242.627 262.895 242.327 262.456 241.95 262.09C241.591 261.822 241.158 261.671 240.71 261.66H240.27L240.05 268.34L234.91 268.21ZM240.32 258.58L242.47 258.65C242.925 258.633 243.377 258.572 243.82 258.47C244.151 258.417 244.451 258.242 244.66 257.98C244.896 257.701 245.021 257.345 245.01 256.98C245.032 256.754 245.002 256.525 244.922 256.312C244.842 256.099 244.715 255.907 244.55 255.75C243.992 255.38 243.327 255.208 242.66 255.26L240.43 255.19L240.32 258.58Z" fill="white"/>
<path d="M243 296.16C242.813 296.164 242.626 296.127 242.454 296.053C242.282 295.979 242.127 295.869 242 295.73L233.44 286.36L224.2 294.8C223.944 295.035 223.606 295.158 223.259 295.143C222.912 295.128 222.585 294.976 222.35 294.72L213.79 285.35L204.55 293.79C204.294 294.025 203.956 294.148 203.609 294.133C203.262 294.118 202.935 293.966 202.7 293.71L194.13 284.34L184.9 292.78C184.766 292.902 184.608 292.995 184.436 293.054C184.264 293.112 184.081 293.135 183.9 293.12C183.553 293.099 183.227 292.945 182.99 292.69L174.43 283.33L165.2 291.76C164.943 291.995 164.602 292.119 164.254 292.104C163.905 292.089 163.577 291.936 163.34 291.68C163.224 291.553 163.133 291.404 163.074 291.242C163.016 291.08 162.99 290.908 162.998 290.736C163.006 290.564 163.049 290.395 163.123 290.24C163.197 290.084 163.302 289.945 163.43 289.83L173.63 280.5C173.888 280.265 174.228 280.141 174.577 280.156C174.925 280.171 175.254 280.324 175.49 280.58L184.05 289.95L193.28 281.51C193.542 281.28 193.882 281.158 194.23 281.17C194.578 281.189 194.905 281.343 195.14 281.6L203.7 290.97L212.94 282.53C213.066 282.413 213.215 282.321 213.376 282.262C213.538 282.202 213.71 282.175 213.882 282.183C214.054 282.19 214.223 282.232 214.379 282.305C214.535 282.379 214.675 282.482 214.79 282.61L223.35 291.98L232.59 283.54C232.846 283.305 233.185 283.182 233.532 283.197C233.879 283.212 234.206 283.364 234.44 283.62L244 294C244.171 294.191 244.283 294.427 244.321 294.681C244.36 294.934 244.324 295.193 244.218 295.426C244.112 295.66 243.941 295.857 243.724 295.994C243.508 296.132 243.257 296.203 243 296.2V296.16Z" fill="white"/>
<path d="M84.7502 337.67L78.4902 334.68L72.9102 307.51L75.9402 304.18L84.7502 337.67Z" fill="#5F8BFF"/>
<path d="M84.7499 337.67L93.0599 332.81L85.9399 310.43L75.9399 304.18L84.7499 337.67Z" fill="#5F8BFF"/>
<path opacity="0.2" d="M84.7499 337.67L93.0599 332.81L85.9399 310.43L75.9399 304.18L84.7499 337.67Z" fill="black"/>
<path d="M221 342.61H220.31C218.984 342.574 217.727 342.013 216.814 341.05C215.902 340.087 215.409 338.801 215.445 337.475C215.481 336.149 216.042 334.891 217.005 333.979C217.968 333.067 219.254 332.574 220.58 332.61C228.28 332.86 244.58 328.13 253.9 319.09C254.463 318.538 255.148 318.127 255.9 317.89C271.69 313.15 277.56 322.72 277.8 323.13L269.2 328.22C269.23 328.284 269.267 328.344 269.31 328.4C269.22 328.27 266.98 325.4 259.86 327.16C248.17 337.82 230.23 342.61 221 342.61Z" fill="#263238"/>
<path d="M220.39 349.25L202.18 348.11L200.75 314.53L225.22 315.44L220.39 349.25Z" fill="#5F8BFF"/>
<path d="M220.39 349.25L224.65 345.01L227.29 324.08L225.22 315.44L220.39 349.25Z" fill="#5F8BFF"/>
<path opacity="0.2" d="M220.39 349.25L224.65 345.01L227.29 324.08L225.22 315.44L220.39 349.25Z" fill="black"/>
<path d="M325.91 336.54C325.256 336.539 324.621 336.325 324.1 335.93C313.7 328.03 299.65 314 294.26 300.47C294.179 300.274 294.122 300.069 294.09 299.86C291.46 284.22 288.95 251.31 288.84 249.92C288.81 249.526 288.859 249.13 288.982 248.755C289.106 248.379 289.302 248.032 289.56 247.733C290.08 247.128 290.819 246.755 291.615 246.695C292.411 246.635 293.197 246.894 293.802 247.415C294.407 247.935 294.78 248.674 294.84 249.47C294.84 249.8 297.41 283.03 299.97 298.54C305.35 311.7 319.97 325.21 327.75 331.15C328.251 331.53 328.62 332.058 328.804 332.659C328.989 333.26 328.98 333.904 328.779 334.5C328.578 335.095 328.195 335.613 327.683 335.979C327.172 336.345 326.559 336.541 325.93 336.54H325.91Z" fill="#263238"/>
<path d="M339.78 338.05C337.46 338.05 334.83 337 331.96 334.93C331.316 334.463 330.883 333.759 330.757 332.974C330.632 332.188 330.823 331.384 331.29 330.74C331.757 330.095 332.461 329.663 333.246 329.537C334.032 329.412 334.836 329.603 335.48 330.07C337.96 331.86 339.31 332.07 339.78 332.07C340.576 332.07 341.339 332.386 341.901 332.949C342.464 333.511 342.78 334.274 342.78 335.07C342.78 335.866 342.464 336.629 341.901 337.191C341.339 337.754 340.576 338.07 339.78 338.07V338.05Z" fill="#263238"/>
<path d="M332.8 334.84C336.01 325.31 349.17 327.19 353.71 328.61C357.588 329.736 361.308 331.348 364.78 333.41C367.23 335.01 367.27 337.7 364 339.23C360 341.11 349.84 339.44 349.84 339.44C355.08 341.73 349.84 345.44 340.63 341.8C337.64 340.62 331.67 338.34 332.8 334.84Z" fill="#5F8BFF"/>
<path d="M300.86 254C299.67 262.1 292.96 268.07 287.5 267.27C282.04 266.47 281.82 259.27 283.01 251.13C284.2 242.99 286.36 237.13 291.82 237.93C297.28 238.73 302.05 245.93 300.86 254Z" fill="#263238"/>
<path d="M168.88 221.7C169.333 221.7 169.7 221.333 169.7 220.88C169.7 220.427 169.333 220.06 168.88 220.06C168.427 220.06 168.06 220.427 168.06 220.88C168.06 221.333 168.427 221.7 168.88 221.7Z" fill="#263238"/>
<path d="M177.21 226.78C177.21 226.942 177.162 227.101 177.072 227.236C176.982 227.37 176.854 227.475 176.704 227.538C176.554 227.6 176.389 227.616 176.23 227.584C176.071 227.553 175.925 227.474 175.81 227.36C175.696 227.245 175.618 227.099 175.586 226.94C175.554 226.781 175.571 226.616 175.633 226.466C175.695 226.316 175.8 226.188 175.935 226.098C176.07 226.008 176.228 225.96 176.39 225.96C176.608 225.96 176.816 226.046 176.97 226.2C177.124 226.354 177.21 226.562 177.21 226.78Z" fill="#263238"/>
<path d="M178.13 323.68C178.13 323.842 178.082 324.001 177.992 324.136C177.902 324.27 177.774 324.376 177.624 324.438C177.474 324.5 177.309 324.516 177.15 324.484C176.991 324.453 176.845 324.375 176.73 324.26C176.616 324.145 176.538 323.999 176.506 323.84C176.474 323.681 176.491 323.516 176.553 323.366C176.615 323.216 176.72 323.088 176.855 322.998C176.99 322.908 177.148 322.86 177.31 322.86C177.528 322.86 177.736 322.946 177.89 323.1C178.044 323.254 178.13 323.463 178.13 323.68Z" fill="#263238"/>
<path d="M185.64 329.59C185.64 329.752 185.592 329.911 185.502 330.045C185.412 330.18 185.284 330.285 185.134 330.348C184.984 330.41 184.819 330.426 184.66 330.394C184.501 330.363 184.355 330.284 184.24 330.17C184.125 330.055 184.047 329.909 184.016 329.75C183.984 329.591 184 329.426 184.062 329.276C184.124 329.126 184.23 328.998 184.364 328.908C184.499 328.818 184.658 328.77 184.82 328.77C185.037 328.77 185.246 328.856 185.4 329.01C185.554 329.164 185.64 329.372 185.64 329.59Z" fill="#263238"/>
<path d="M41.51 339.42C40.0704 339.353 38.6643 338.963 37.3955 338.279C36.1268 337.595 35.0279 336.635 34.18 335.47C34.1385 335.416 34.1082 335.355 34.0912 335.289C34.0742 335.223 34.0707 335.155 34.081 335.088C34.0912 335.021 34.115 334.957 34.1509 334.899C34.1869 334.841 34.2341 334.792 34.2898 334.753C34.3455 334.714 34.4085 334.687 34.475 334.674C34.5415 334.66 34.61 334.66 34.6765 334.674C34.7429 334.688 34.8059 334.715 34.8615 334.754C34.9171 334.793 34.9642 334.842 35 334.9C36.87 337.6 41 339.03 42.8 338.18C42.9803 338.103 43.141 337.987 43.27 337.84C42.3605 337.44 41.5636 336.822 40.9497 336.04C40.3357 335.259 39.9237 334.338 39.75 333.36C39.52 332.09 39.34 330.36 40.38 330.14C41.82 329.82 43.7 333.29 44.38 335.92C44.5032 336.355 44.5472 336.809 44.51 337.26C45.0868 337.432 45.6935 337.48 46.29 337.4C46.5588 337.379 46.8204 337.303 47.058 337.175C47.2956 337.048 47.504 336.872 47.67 336.66C47.0119 336.163 46.466 335.533 46.0679 334.811C45.6699 334.089 45.4286 333.292 45.36 332.47C44.98 329.73 45.27 329.26 45.57 329.02C45.6672 328.945 45.7832 328.899 45.9051 328.887C46.027 328.875 46.1498 328.896 46.26 328.95C47.33 329.4 48.62 333.28 48.87 335.48C48.9 335.709 48.9 335.941 48.87 336.17C49.3011 336.336 49.7582 336.424 50.22 336.43C51.068 336.463 51.9067 336.244 52.63 335.8C52.49 335.71 52.36 335.61 52.23 335.51C51.23 334.62 50.77 333.2 50.95 331.18C51.09 329.61 51.44 328.75 52.07 328.48C52.2733 328.398 52.4958 328.378 52.7107 328.42C52.9255 328.463 53.1233 328.567 53.28 328.72C53.9551 329.465 54.4595 330.349 54.7583 331.309C55.0571 332.269 55.143 333.283 55.01 334.28C54.9232 334.695 54.7494 335.087 54.5 335.43C56.34 335.75 58.92 335.23 61.15 334.68C61.2157 334.664 61.2838 334.662 61.3505 334.672C61.4172 334.683 61.4812 334.706 61.5387 334.742C61.5963 334.777 61.6464 334.823 61.686 334.878C61.7257 334.932 61.7543 334.994 61.77 335.06C61.7858 335.126 61.7885 335.194 61.7779 335.26C61.7673 335.327 61.7437 335.391 61.7084 335.449C61.6731 335.506 61.6269 335.556 61.5722 335.596C61.5176 335.636 61.4557 335.664 61.39 335.68C58.68 336.35 55.76 336.9 53.7 336.3C52.6945 337.064 51.4631 337.472 50.2 337.46C49.6395 337.453 49.0846 337.348 48.56 337.15C48.3274 337.51 48.0153 337.811 47.6477 338.032C47.2802 338.252 46.867 338.385 46.44 338.42C45.6883 338.517 44.9247 338.452 44.2 338.23C43.9667 338.623 43.6174 338.934 43.2 339.12C42.6637 339.336 42.0881 339.439 41.51 339.42ZM40.65 331.14C40.5117 331.82 40.5391 332.523 40.73 333.19C40.8711 333.99 41.2029 334.743 41.6973 335.387C42.1917 336.032 42.8341 336.547 43.57 336.89C43.556 336.653 43.5158 336.418 43.45 336.19C42.67 333.33 41.17 331.36 40.65 331.14ZM46.22 330.27C46.2265 330.96 46.2834 331.648 46.39 332.33C46.5003 333.549 47.0388 334.69 47.91 335.55C47.6639 333.704 47.0917 331.916 46.22 330.27ZM52.51 329.4C52.51 329.4 52.13 329.59 51.99 331.26C51.85 332.93 52.14 334.08 52.92 334.75C53.1046 334.899 53.306 335.027 53.52 335.13C53.783 334.849 53.969 334.504 54.06 334.13C54.2381 332.556 53.8129 330.973 52.87 329.7C52.66 329.44 52.54 329.4 52.51 329.4Z" fill="#263238"/>
<path d="M187.87 346.98L190.58 342.28L187.87 337.58H184.97L186.61 342.28L184.97 346.98H187.87Z" fill="#263238"/>
<path d="M185.16 344.73C184.826 344.751 184.491 344.704 184.176 344.591C183.86 344.478 183.572 344.301 183.327 344.072C183.083 343.843 182.888 343.566 182.755 343.259C182.622 342.951 182.554 342.62 182.554 342.285C182.554 341.95 182.622 341.619 182.755 341.311C182.888 341.004 183.083 340.727 183.327 340.498C183.572 340.269 183.86 340.092 184.176 339.979C184.491 339.866 184.826 339.819 185.16 339.84L180.56 338.92L179.33 342.64L181.39 345.78L185.16 344.73Z" fill="#263238"/>
<path d="M185.56 337.58H180.13L177.42 342.28L180.13 346.98H185.56L188.27 342.28L185.56 337.58ZM182.85 344.73C182.365 344.732 181.89 344.59 181.486 344.322C181.082 344.054 180.766 343.672 180.579 343.224C180.392 342.777 180.342 342.284 180.436 341.808C180.529 341.332 180.762 340.895 181.104 340.551C181.446 340.207 181.883 339.973 182.358 339.878C182.834 339.782 183.327 339.83 183.775 340.016C184.223 340.201 184.607 340.515 184.876 340.918C185.146 341.321 185.29 341.795 185.29 342.28C185.29 342.928 185.033 343.55 184.576 344.009C184.119 344.468 183.498 344.727 182.85 344.73Z" fill="#407BFF"/>
<path d="M376.89 337.26L374.88 333.77L376.89 330.28H379.04L377.83 333.77L379.04 337.26H376.89Z" fill="#407BFF"/>
<path d="M378.9 335.59C379.15 335.608 379.4 335.575 379.637 335.492C379.873 335.41 380.09 335.279 380.273 335.109C380.457 334.938 380.603 334.732 380.703 334.502C380.803 334.273 380.855 334.025 380.855 333.775C380.855 333.525 380.803 333.277 380.703 333.047C380.603 332.818 380.457 332.612 380.273 332.441C380.09 332.271 379.873 332.14 379.637 332.057C379.4 331.975 379.15 331.941 378.9 331.96L382.32 331.28L383.23 334.04L381.71 336.37L378.9 335.59Z" fill="#407BFF"/>
<path d="M378.61 330.28H382.61L384.61 333.77L382.61 337.26H378.61L376.61 333.77L378.61 330.28ZM380.61 335.59C380.97 335.592 381.323 335.487 381.624 335.288C381.924 335.089 382.159 334.806 382.298 334.473C382.438 334.141 382.475 333.775 382.406 333.421C382.337 333.067 382.164 332.742 381.91 332.487C381.656 332.231 381.332 332.057 380.979 331.986C380.625 331.915 380.259 331.95 379.926 332.088C379.593 332.225 379.308 332.458 379.107 332.758C378.907 333.057 378.8 333.41 378.8 333.77C378.799 334.009 378.845 334.247 378.936 334.468C379.027 334.689 379.161 334.891 379.33 335.06C379.499 335.229 379.7 335.363 379.922 335.454C380.143 335.545 380.38 335.591 380.62 335.59H380.61Z" fill="#263238"/>
<path d="M302 341.9H306.52C307.086 341.897 307.627 341.671 308.027 341.27C308.426 340.869 308.65 340.326 308.65 339.76C308.65 339.194 308.426 338.651 308.027 338.25C307.627 337.849 307.086 337.623 306.52 337.62H302C301.432 337.62 300.888 337.845 300.487 338.247C300.085 338.648 299.86 339.192 299.86 339.76C299.86 340.327 300.085 340.872 300.487 341.273C300.888 341.674 301.432 341.9 302 341.9Z" fill="#263238"/>
<path d="M294.73 337.86C295.15 337.097 295.783 336.474 296.553 336.067C297.322 335.659 298.194 335.486 299.061 335.569C299.928 335.651 300.751 335.986 301.43 336.531C302.109 337.076 302.614 337.807 302.882 338.636C303.15 339.464 303.17 340.353 302.939 341.192C302.708 342.031 302.236 342.785 301.582 343.359C300.928 343.934 300.12 344.305 299.258 344.426C298.396 344.547 297.517 344.412 296.73 344.04C295.649 343.482 294.832 342.52 294.457 341.362C294.082 340.204 294.18 338.946 294.73 337.86Z" fill="#407BFF"/>
<path d="M295.95 344.039L297.189 344.623L301.496 335.487L300.257 334.903L295.95 344.039Z" fill="#263238"/>
</svg>
